<svg width="62" height="42" viewBox="0 0 62 42" fill="none" xmlns="http://www.w3.org/2000/svg">
<rect x="21" y="1" width="20" height="20" fill="#D9D9D9" stroke="black" stroke-width="2"/>
<rect x="21" y="21" width="20" height="20" fill="#D9D9D9" stroke="black" stroke-width="2"/>
<rect x="41" y="21" width="20" height="20" fill="#D9D9D9" stroke="black" stroke-width="2"/>
<rect x="1" y="21" width="20" height="20" fill="#D9D9D9" stroke="black" stroke-width="2"/>
<path d="M7.22869 32.0568V30.7841L14.7741 27.125V28.858L9.20597 31.3977L9.2571 31.2955V31.5398L9.20597 31.4432L14.7741 33.9773V35.7159L7.22869 32.0568Z" fill="black"/>
<path d="M54.7713 30.9432L54.7713 32.2159L47.2259 35.875L47.2259 34.142L52.794 31.6023L52.7429 31.7045L52.7429 31.4602L52.794 31.5568L47.2259 29.0227L47.2259 27.2841L54.7713 30.9432Z" fill="black"/>
<path d="M32.0568 34.7713L30.7841 34.7713L27.125 27.2259L28.858 27.2259L31.3977 32.794L31.2955 32.7429L31.5398 32.7429L31.4432 32.794L33.9773 27.2259L35.7159 27.2259L32.0568 34.7713Z" fill="black"/>
<path d="M30.9432 7.22869L32.2159 7.22869L35.875 14.7741L34.142 14.7741L31.6023 9.20597L31.7045 9.2571L31.4602 9.2571L31.5568 9.20597L29.0227 14.7741L27.2841 14.7741L30.9432 7.22869Z" fill="black"/>
</svg>
