<svg width="25" height="25" viewBox="0 0 25 25" fill="none" xmlns="http://www.w3.org/2000/svg">
<g clip-path="url(#clip0_7_2477)">
<path d="M21.875 1.5625C22.2894 1.5625 22.6868 1.72712 22.9799 2.02015C23.2729 2.31317 23.4375 2.7106 23.4375 3.125V21.875C23.4375 22.2894 23.2729 22.6868 22.9799 22.9799C22.6868 23.2729 22.2894 23.4375 21.875 23.4375H3.125C2.7106 23.4375 2.31317 23.2729 2.02015 22.9799C1.72712 22.6868 1.5625 22.2894 1.5625 21.875V3.125C1.5625 2.7106 1.72712 2.31317 2.02015 2.02015C2.31317 1.72712 2.7106 1.5625 3.125 1.5625H21.875ZM3.125 0C2.2962 0 1.50134 0.32924 0.915291 0.915291C0.32924 1.50134 0 2.2962 0 3.125L0 21.875C0 22.7038 0.32924 23.4987 0.915291 24.0847C1.50134 24.6708 2.2962 25 3.125 25H21.875C22.7038 25 23.4987 24.6708 24.0847 24.0847C24.6708 23.4987 25 22.7038 25 21.875V3.125C25 2.2962 24.6708 1.50134 24.0847 0.915291C23.4987 0.32924 22.7038 0 21.875 0L3.125 0Z" fill="#FDFFFC"/>
<path d="M8.21093 9.04062C8.2088 9.09108 8.217 9.14145 8.23505 9.18862C8.25309 9.23579 8.28059 9.27877 8.31586 9.31492C8.35113 9.35107 8.39343 9.37962 8.44014 9.39882C8.48685 9.41802 8.537 9.42746 8.5875 9.42656H9.87656C10.0922 9.42656 10.2641 9.25 10.2922 9.03594C10.4328 8.01094 11.1359 7.26406 12.3891 7.26406C13.4609 7.26406 14.4422 7.8 14.4422 9.08906C14.4422 10.0812 13.8578 10.5375 12.9344 11.2313C11.8828 11.9953 11.05 12.8875 11.1094 14.3359L11.1141 14.675C11.1157 14.7775 11.1576 14.8753 11.2307 14.9472C11.3037 15.0191 11.4022 15.0594 11.5047 15.0594H12.7719C12.8755 15.0594 12.9748 15.0182 13.0481 14.945C13.1213 14.8717 13.1625 14.7723 13.1625 14.6687V14.5047C13.1625 13.3828 13.5891 13.0563 14.7406 12.1828C15.6922 11.4594 16.6844 10.6563 16.6844 8.97031C16.6844 6.60938 14.6906 5.46875 12.5078 5.46875C10.5281 5.46875 8.35937 6.39062 8.21093 9.04062ZM10.6437 18.0453C10.6437 18.8781 11.3078 19.4937 12.2219 19.4937C13.1734 19.4937 13.8281 18.8781 13.8281 18.0453C13.8281 17.1828 13.1719 16.5766 12.2203 16.5766C11.3078 16.5766 10.6437 17.1828 10.6437 18.0453Z" fill="#FDFFFC"/>
</g>
<defs>
<clipPath id="clip0_7_2477">
<rect width="25" height="25" fill="white"/>
</clipPath>
</defs>
</svg>
