<svg width="25" height="25" viewBox="0 0 25 25" fill="none" xmlns="http://www.w3.org/2000/svg">
<g clip-path="url(#clip0_7_3822)">
<g clip-path="url(#clip1_7_3822)">
<rect width="25" height="25" rx="1" fill="#141414"/>
<path d="M21.875 1.5625C22.2894 1.5625 22.6868 1.72712 22.9799 2.02015C23.2729 2.31317 23.4375 2.7106 23.4375 3.125V21.875C23.4375 22.2894 23.2729 22.6868 22.9799 22.9799C22.6868 23.2729 22.2894 23.4375 21.875 23.4375H3.125C2.7106 23.4375 2.31317 23.2729 2.02015 22.9799C1.72712 22.6868 1.5625 22.2894 1.5625 21.875V3.125C1.5625 2.7106 1.72712 2.31317 2.02015 2.02015C2.31317 1.72712 2.7106 1.5625 3.125 1.5625H21.875ZM3.125 0C2.2962 0 1.50134 0.32924 0.915291 0.915291C0.32924 1.50134 0 2.2962 0 3.125L0 21.875C0 22.7038 0.32924 23.4987 0.915291 24.0847C1.50134 24.6708 2.2962 25 3.125 25H21.875C22.7038 25 23.4987 24.6708 24.0847 24.0847C24.6708 23.4987 25 22.7038 25 21.875V3.125C25 2.2962 24.6708 1.50134 24.0847 0.915291C23.4987 0.32924 22.7038 0 21.875 0L3.125 0Z" fill="#FDFFFC"/>
</g>
<path d="M13.7195 19H11.2809C11.1281 19 10.9799 18.9494 10.8608 18.8564C10.7418 18.7635 10.6591 18.6339 10.6264 18.4891L10.3537 17.2645C9.98994 17.1099 9.64503 16.9165 9.32531 16.688L8.09461 17.0682C7.94894 17.1133 7.79176 17.1086 7.64918 17.0551C7.50659 17.0015 7.38718 16.9022 7.31077 16.7738L6.08878 14.7256C6.01318 14.597 5.98479 14.4473 6.00828 14.301C6.03177 14.1547 6.10574 14.0205 6.21808 13.9202L7.17276 13.0752C7.12935 12.6925 7.12935 12.3062 7.17276 11.9234L6.21808 11.0804C6.10558 10.9802 6.03151 10.8458 6.00802 10.6994C5.98453 10.5529 6.013 10.4031 6.08878 10.2744L7.30809 8.22495C7.3845 8.09646 7.50391 7.99718 7.6465 7.94362C7.78908 7.89006 7.94626 7.88543 8.09193 7.9305L9.32263 8.31075C9.4861 8.19375 9.65627 8.08455 9.83179 7.98575C10.0013 7.89345 10.1755 7.8096 10.3537 7.73485L10.627 6.51155C10.6596 6.36673 10.7421 6.23705 10.8611 6.14401C10.98 6.05097 11.1281 6.00016 11.2809 6H13.7195C13.8723 6.00016 14.0204 6.05097 14.1393 6.14401C14.2583 6.23705 14.3408 6.36673 14.3734 6.51155L14.6494 7.7355C15.0127 7.89102 15.3575 8.08434 15.6778 8.31205L16.9091 7.9318C17.0547 7.8869 17.2118 7.89161 17.3542 7.94516C17.4966 7.99872 17.6159 8.09789 17.6923 8.22625L18.9116 10.2757C19.0671 10.5403 19.0135 10.875 18.7823 11.081L17.8276 11.926C17.8711 12.3088 17.8711 12.6951 17.8276 13.0778L18.7823 13.9228C19.0135 14.1295 19.0671 14.4636 18.9116 14.7282L17.6923 16.7776C17.6159 16.9061 17.4965 17.0054 17.3539 17.059C17.2113 17.1125 17.0541 17.1172 16.9085 17.0721L15.6778 16.6918C15.3583 16.9202 15.0136 17.1134 14.6501 17.2677L14.3734 18.4891C14.3407 18.6338 14.2581 18.7633 14.1392 18.8562C14.0203 18.9492 13.8722 18.9999 13.7195 19ZM12.4975 9.9C11.7868 9.9 11.1052 10.1739 10.6026 10.6615C10.1001 11.1491 9.81772 11.8104 9.81772 12.5C9.81772 13.1896 10.1001 13.8509 10.6026 14.3385C11.1052 14.8261 11.7868 15.1 12.4975 15.1C13.2083 15.1 13.8899 14.8261 14.3924 14.3385C14.895 13.8509 15.1773 13.1896 15.1773 12.5C15.1773 11.8104 14.895 11.1491 14.3924 10.6615C13.8899 10.1739 13.2083 9.9 12.4975 9.9Z" fill="#FDFFFC"/>
<rect width="25" height="25" rx="4" fill="#FDFFFC"/>
<path d="M21.875 1.5625C22.2894 1.5625 22.6868 1.72712 22.9799 2.02015C23.2729 2.31317 23.4375 2.7106 23.4375 3.125V21.875C23.4375 22.2894 23.2729 22.6868 22.9799 22.9799C22.6868 23.2729 22.2894 23.4375 21.875 23.4375H3.125C2.7106 23.4375 2.31317 23.2729 2.02015 22.9799C1.72712 22.6868 1.5625 22.2894 1.5625 21.875V3.125C1.5625 2.7106 1.72712 2.31317 2.02015 2.02015C2.31317 1.72712 2.7106 1.5625 3.125 1.5625H21.875ZM3.125 0C2.2962 0 1.50134 0.32924 0.915291 0.915291C0.32924 1.50134 0 2.2962 0 3.125L0 21.875C0 22.7038 0.32924 23.4987 0.915291 24.0847C1.50134 24.6708 2.2962 25 3.125 25H21.875C22.7038 25 23.4987 24.6708 24.0847 24.0847C24.6708 23.4987 25 22.7038 25 21.875V3.125C25 2.2962 24.6708 1.50134 24.0847 0.915291C23.4987 0.32924 22.7038 0 21.875 0L3.125 0Z" fill="#FDFFFC"/>
<path d="M13.7195 19H11.2809C11.1281 19 10.9799 18.9494 10.8608 18.8564C10.7418 18.7635 10.6591 18.6339 10.6264 18.4891L10.3537 17.2645C9.98994 17.1099 9.64503 16.9165 9.32531 16.688L8.09461 17.0682C7.94894 17.1133 7.79176 17.1086 7.64918 17.0551C7.50659 17.0015 7.38718 16.9022 7.31077 16.7738L6.08878 14.7256C6.01318 14.597 5.98479 14.4473 6.00828 14.301C6.03177 14.1547 6.10574 14.0205 6.21808 13.9202L7.17276 13.0752C7.12935 12.6925 7.12935 12.3062 7.17276 11.9234L6.21808 11.0804C6.10558 10.9802 6.03151 10.8458 6.00802 10.6994C5.98453 10.5529 6.013 10.4031 6.08878 10.2744L7.30809 8.22495C7.3845 8.09646 7.50391 7.99718 7.6465 7.94362C7.78908 7.89006 7.94626 7.88543 8.09193 7.9305L9.32263 8.31075C9.4861 8.19375 9.65627 8.08455 9.83179 7.98575C10.0013 7.89345 10.1755 7.8096 10.3537 7.73485L10.627 6.51155C10.6596 6.36673 10.7421 6.23705 10.8611 6.14401C10.98 6.05097 11.1281 6.00016 11.2809 6H13.7195C13.8723 6.00016 14.0204 6.05097 14.1393 6.14401C14.2583 6.23705 14.3408 6.36673 14.3734 6.51155L14.6494 7.7355C15.0127 7.89102 15.3575 8.08434 15.6778 8.31205L16.9091 7.9318C17.0547 7.8869 17.2118 7.89161 17.3542 7.94516C17.4966 7.99872 17.6159 8.09789 17.6923 8.22625L18.9116 10.2757C19.0671 10.5402 19.0135 10.875 18.7823 11.081L17.8276 11.926C17.8711 12.3088 17.8711 12.6951 17.8276 13.0778L18.7823 13.9228C19.0135 14.1295 19.0671 14.4636 18.9116 14.7282L17.6923 16.7776C17.6159 16.9061 17.4965 17.0054 17.3539 17.059C17.2113 17.1125 17.0541 17.1172 16.9085 17.0721L15.6778 16.6918C15.3583 16.9202 15.0136 17.1134 14.6501 17.2677L14.3734 18.4891C14.3407 18.6338 14.2581 18.7633 14.1392 18.8562C14.0203 18.9492 13.8722 18.9999 13.7195 19ZM12.4975 9.9C11.7868 9.9 11.1052 10.1739 10.6026 10.6615C10.1001 11.1491 9.81772 11.8104 9.81772 12.5C9.81772 13.1896 10.1001 13.8509 10.6026 14.3385C11.1052 14.8261 11.7868 15.1 12.4975 15.1C13.2083 15.1 13.8899 14.8261 14.3924 14.3385C14.895 13.8509 15.1773 13.1896 15.1773 12.5C15.1773 11.8104 14.895 11.1491 14.3924 10.6615C13.8899 10.1739 13.2083 9.9 12.4975 9.9Z" fill="#141414"/>
</g>
<defs>
<clipPath id="clip0_7_3822">
<rect width="25" height="25" fill="white"/>
</clipPath>
<clipPath id="clip1_7_3822">
<rect width="25" height="25" fill="white"/>
</clipPath>
</defs>
</svg>
